PathFileType	4	(X/Y/Z)	C:\Users\gl24\Desktop\Patient 3 Collaboration with Marleny\nms_results\Right\Marker Files\Patient3_NormalGait_1pt0_02_Right_01.trc.trc
DataRate	CameraRate	NumFrames	NumMarkers	Units	OrigDataRate	OrigDataStartFrame	OrigNumFrames
80.459770114943	80.459770114943	5	33	mm	80.459770114943	18	       141
Frame#	Time	L.Toe			L.Midfoot.Superior			Neck			R.Toe			R.Heel			L.Heel			R.Elbow			R.Shoulder			L.Shank.Inferior			L.Shoulder			L.Shank.Superior			R.Shank.Lateral			L.Patella			L.Thigh.Inferior			R.Wrist			R.Midfoot.Superior			L.Shank.Lateral			Sternum			L.Elbow			R.Midfoot.Lateral			L.Thigh.Superior			L.Wrist			R.Thigh.Superior			L.Thigh.Lateral			R.Shank.Inferior			L.Midfoot.Lateral			R.Shank.Superior			R.Thigh.Lateral			L.Asis			R.Thigh.Inferior			R.Patella			Sacral			R.Asis			
		X1	Y1	Z1	X2	Y2	Z2	X3	Y3	Z3	X4	Y4	Z4	X5	Y5	Z5	X6	Y6	Z6	X7	Y7	Z7	X8	Y8	Z8	X9	Y9	Z9	X10	Y10	Z10	X11	Y11	Z11	X12	Y12	Z12	X13	Y13	Z13	X14	Y14	Z14	X15	Y15	Z15	X16	Y16	Z16	X17	Y17	Z17	X18	Y18	Z18	X19	Y19	Z19	X20	Y20	Z20	X21	Y21	Z21	X22	Y22	Z22	X23	Y23	Z23	X24	Y24	Z24	X25	Y25	Z25	X26	Y26	Z26	X27	Y27	Z27	X28	Y28	Z28	X29	Y29	Z29	X30	Y30	Z30	X31	Y31	Z31	X32	Y32	Z32	X33	Y33	Z33	

18	0.601285714286	484.898794374444	37.205088946340	401.883724683692	376.115718325602	92.675598116493	411.978072363881	469.878001495761	1460.573560407295	461.358323676661	993.926282867229	132.466999634492	594.627657140456	718.817368537920	40.658003023190	534.796785753929	200.483347557528	68.342077506419	451.126572821500	401.183745848805	1084.514858925471	719.612066421997	501.807358901987	1418.746886039954	629.974798049867	377.793198973305	237.067731010229	395.665014163093	549.068796330223	1426.294368458166	322.258562878525	435.847718485681	381.518987110952	370.246071880565	663.891075440214	355.844134964202	645.027074449812	503.884927522454	471.971271929684	386.878559144843	552.902526668354	591.954468008232	370.027525188973	438.021618558711	835.678265882263	761.288341781295	865.704918713730	140.196144801626	574.950818192997	333.712526104722	348.676765315652	330.971072461473	616.217876273535	1360.069632455455	484.762711710551	571.437067151093	1103.311596973082	171.192066998260	794.919054366208	55.485562526225	606.227328440277	593.099450277532	716.845086692268	353.861830810743	798.918378693895	976.970020260351	193.899029229151	659.408518669699	735.772431858535	610.824513583942	483.111253350804	657.086354815026	309.274392387459	775.118648693143	254.461916784367	586.838166431945	274.497669719482	45.158161727408	385.514397509852	733.263535887708	426.751594753057	606.368399118897	592.848962210780	659.834341052163	662.808784088671	589.275153797781	954.137283974634	342.353137641980	694.690031360048	631.772043725465	596.162955910411	732.591174844425	529.928125409103	585.964633483852	408.192034700837	986.158358278690	464.165565614853	571.567028209137	966.612642035688	602.185716800662	
19	0.613714285714	472.409990191422	37.097959730171	401.743327058660	364.599739055232	92.969782967942	411.450289158542	470.014134349153	1458.531438978810	462.593404547496	1005.695238862369	143.795191023610	593.276694277618	734.312268615964	38.461315391865	534.862023451932	188.819610273538	71.080216128967	450.811787229082	401.145149408686	1082.639960741322	720.810125706733	502.324980875442	1416.699453100653	631.155928114827	368.425420385811	237.483051077973	395.420129980582	549.069993710328	1424.316601245812	323.412389174302	428.626754205022	381.184855306023	370.305245504849	666.943449372275	353.380913557824	644.797155673977	497.996735521853	470.595177107833	387.071212550658	548.638470785286	590.419938342829	370.269918514060	437.793040325436	833.761517688722	762.531254544206	876.862249347943	145.176015197622	574.327517181465	325.981234154299	350.036168681295	330.974952508780	616.458492995990	1358.037594398347	485.730091559541	571.986350515512	1101.574237862789	171.850321135663	810.276227226916	56.990224406363	605.876801712788	590.475980657103	714.836701480356	354.001325778944	800.474158875516	977.122469256356	194.727140591542	657.511142023972	732.304427125305	610.915389676023	479.825947397849	656.399088281271	309.198067891575	782.139108166043	255.638995625293	586.843189793160	262.528736608903	46.681029921500	385.308372806836	734.217784312758	426.628875995490	606.548472274374	590.670274776276	657.042131084511	663.318710213200	589.237730391251	952.242197708032	343.137500643895	691.939515580452	628.460535580159	595.803072884005	730.557788609140	529.208145938363	585.251765391848	408.279107921702	984.067853166942	465.547245368574	571.815119880572	964.491814693352	603.122565893335	
20	0.626142857143	459.944535515567	36.985304609936	401.607335082087	353.202756298476	93.292790982415	410.894540660221	470.133576407280	1456.337009085569	463.939879362219	1013.375386832842	151.889422694030	590.764079294465	744.855822501055	36.644508539668	534.685233200742	177.257881015292	74.044796549766	450.437444297210	401.580567331255	1080.417927809182	722.219370875800	502.812332497552	1414.451160496079	632.439310992705	359.445167087657	237.839141724759	395.250237749678	549.057092834538	1422.208179208218	324.648929136954	422.081816294934	380.650740641470	370.503232269828	669.795616760901	351.298705177868	644.594129624141	492.930112499820	469.065549461360	387.317005167312	545.227172155385	588.719576467473	370.378675206248	438.317719105452	831.541974677884	763.971926703060	884.161840290304	148.485579424085	572.973336661564	318.938587425797	351.345898047798	331.010499286670	616.715014759810	1355.886741773223	486.796972614281	572.237541148644	1099.568614533802	172.738475850638	820.948944761805	57.793680933813	605.047385486978	588.453853986079	712.748639708220	354.083978077328	801.488928919553	976.555398350919	195.588130312836	656.709771226239	729.638271425353	610.900435876299	477.186563592957	655.518855518455	309.274377539136	787.109730121712	255.970302239551	586.387707659160	250.649229350339	48.334307188814	385.064874876176	735.626930470013	425.944741904822	606.447376745385	590.150722596798	654.758105288896	663.975053866041	589.502305570061	950.200754830358	344.038558127444	690.647001209397	625.992166358572	595.364308901254	729.917764735691	528.585694708469	584.881393657407	408.563437073584	981.795225472234	466.940373313824	572.195411226667	962.271816748149	604.173386863567	
21	0.638571428571	447.511219933454	36.880984434986	401.480939599803	341.961462474559	93.637016911755	410.307860932053	470.232023273881	1454.042338953559	465.386928660179	1017.263940796354	156.026359280842	587.287471987747	750.381104964745	35.053611285169	534.302407784712	165.820132614632	77.285205897878	450.010563448598	402.479919249713	1077.897869257870	723.817907759691	503.230206435803	1412.061084098453	633.821470286182	350.875835832132	238.149265740104	395.157440099679	549.040573265049	1420.013152447096	325.966308829470	416.242240973347	379.914070266241	370.838862729423	672.497945622470	349.499115841672	644.396487482011	488.737594003263	467.340177850974	387.616829000640	542.703969586633	586.859886972285	370.378825047938	439.600170013450	829.072958816681	765.584088797213	887.825500751832	149.704155365615	570.959569514734	312.612793224696	352.615899064673	331.095384224118	616.980879518925	1353.676082853175	487.977926275085	572.191423271104	1097.331008568183	173.861596467177	826.896890738576	57.597925352794	603.827709306981	587.047553463283	710.599571043378	354.161287188030	801.956707692789	975.272494077540	196.482193493216	657.167628018692	727.804119873203	610.833610972344	475.220103126916	654.444371787527	309.542632164110	790.151058311203	255.267254607253	585.436040871327	238.870918452719	50.144894517289	384.788255092987	737.523108896054	424.656987477825	605.965639421019	591.305841895185	652.984978718476	664.639122510116	590.092001866497	948.041453288880	345.068829968769	690.933629080199	624.324336897685	594.885976981779	730.630746622462	527.947669530803	584.752796809174	409.087905191209	979.398117500498	468.334723636293	572.771615053490	960.018789457146	605.351115232358	
22	0.651000000000	435.118863164819	36.803056762500	401.369696414671	330.921291107649	93.987802499442	409.694142004564	470.306801887062	1451.704184449509	466.926321969376	1017.850571773482	155.861166607015	583.114461950788	751.166167429779	33.659286847147	533.769783403220	154.544614881413	80.870931940683	449.552334689748	403.822323414371	1075.146597106853	725.578639858520	503.551290623937	1409.598317050647	635.300230226931	342.748763718066	238.437912048651	395.138141663662	549.030116304962	1417.784605631180	327.364911359896	411.134137948993	378.982959666036	371.300637821466	675.087009044812	347.883346005200	644.203495810695	485.477192803790	465.380596350455	387.958404171602	541.069061157367	584.869233929590	370.311223355103	441.640123160482	826.426987798556	767.337615161880	888.288763738702	148.663880814596	568.416295490631	307.022978819025	353.870190960454	331.256444084959	617.255168634125	1351.475605553981	489.284702614700	571.850548316854	1094.910931820052	175.229577994940	828.385300533051	56.292957109760	602.334599016409	586.256773848103	708.418187021617	354.279282281884	801.866749526412	973.284656032761	197.408678779838	658.952848271749	726.704247120451	610.795066331170	473.935746515914	653.188577065090	310.026634451170	791.479414150013	253.486767613067	584.002632420393	227.208863545065	52.152338628651	384.494538722127	739.853564243499	422.777466629286	605.049804392396	593.969591008871	651.654460440692	665.171916565224	591.027993562693	945.805214814739	346.223976604085	692.761458313809	623.296393577378	594.424774045368	732.520468989492	527.186470858204	584.740937466075	409.905135005842	976.937054082948	469.735109483044	573.635381027054	957.806703029494	606.651118148738	
